<svg width="116" height="47" viewBox="0 0 116 47" fill="none" xmlns="http://www.w3.org/2000/svg">
	<path d="M115.217 39.1159C115.217 40.639 114.765 42.128 113.919 43.3944C113.073 44.6609 111.87 45.648 110.463 46.2309C109.055 46.8138 107.507 46.9663 106.013 46.6691C104.519 46.372 103.147 45.6385 102.07 44.5615C100.993 43.4844 100.259 42.1122 99.9623 40.6183C99.6652 39.1244 99.8177 37.576 100.401 36.1688C100.983 34.7616 101.971 33.5588 103.237 32.7126C104.503 31.8664 105.992 31.4147 107.516 31.4147C109.558 31.4147 111.517 32.2261 112.961 33.6703C114.405 35.1146 115.217 37.0734 115.217 39.1159Z" fill="black" />
	<path d="M92.1695 42.0493C95.8982 39.135 98.4728 34.9929 99.4356 30.3594C100.398 25.7259 99.6872 20.9011 97.4283 16.7425C95.1694 12.5839 91.5091 9.36092 87.0981 7.64645C82.6871 5.93198 77.811 5.83705 73.3366 7.37855C68.8622 8.92005 65.0793 11.9981 62.6602 16.0656C60.2412 20.1332 59.3427 24.9267 60.1245 29.5942C60.9063 34.2616 63.3177 38.5007 66.9301 41.558C70.5426 44.6153 75.122 46.2926 79.8545 46.292C84.3184 46.2946 88.6544 44.8008 92.1695 42.0493Z" fill="black" />
	<path d="M39.9553 24.9247V0.182861C37.3311 0.183542 34.751 0.857098 32.4614 2.13919C30.1718 3.42128 28.2492 5.26906 26.8772 7.50601C22.8814 6.04346 18.5233 5.8933 14.4362 7.07735C10.3492 8.2614 6.74625 10.718 4.15103 14.09C1.55581 17.462 0.103556 21.5738 0.00533253 25.8278C-0.092891 30.0817 1.16803 34.2562 3.60485 37.7444C6.04167 41.2326 9.52739 43.8528 13.5554 45.2242C17.5834 46.5957 21.9439 46.6468 26.0029 45.3703C30.062 44.0937 33.6083 41.556 36.1262 38.1259C38.6442 34.6958 40.0027 30.552 40.0043 26.297C40.0043 25.8279 39.9833 25.3728 39.9553 24.9247Z" fill="black" />
	<path d="M49.7919 15.5923C47.771 15.5942 45.8336 16.3983 44.4053 17.8279C42.977 19.2575 42.1747 21.1957 42.1747 23.2165V46.3202C46.2454 46.3183 50.1488 44.6999 53.0266 41.8208C55.9044 38.9417 57.5211 35.0375 57.5211 30.9668V23.3216C57.5248 22.3055 57.3274 21.2988 56.9403 20.3593C56.5531 19.4199 55.984 18.5664 55.2655 17.8479C54.547 17.1295 53.6935 16.5603 52.7541 16.1732C51.8147 15.786 50.8079 15.5886 49.7919 15.5923Z" fill="black" />
	<path d="M49.8479 15.5293C54.0857 15.5293 57.5211 12.0939 57.5211 7.85608C57.5211 3.61829 54.0857 0.182861 49.8479 0.182861C45.6101 0.182861 42.1747 3.61829 42.1747 7.85608C42.1747 12.0939 45.6101 15.5293 49.8479 15.5293Z" fill="black" />
</svg>
